# AST/ASF file generated using VICON BodyLanguage
# -----------------------------------------------
:version 1.10
:name VICON
:units
  mass 1.0
  length 0.45
  angle deg
:documentation
   .ast/.asf automatically generated from VICON data using
   VICON BodyBuilder and BodyLanguage model FoxedUp or BRILLIANT.MOD
:root
   order TX TY TZ RX RY RZ
   axis XYZ
   position 0 0 0  
   orientation 0 0 0 
:bonedata
  begin
     id 1 
     name lhipjoint
     direction 0.661853 -0.702389 0.261917 
     length 2.64193 
     axis 0 0 0  XYZ
  end
  begin
     id 2 
     name lfemur
     direction 0.34202 -0.939693 0  
     length 7.01722  
     axis 0 0 20  XYZ
    dof rx ry rz
    limits (-160.0 20.0)
           (-70.0 70.0)
           (-60.0 70.0)
  end
  begin
     id 3 
     name ltibia
     direction 0.34202 -0.939693 0   
     length 8.25008   
     axis 0 0 20   XYZ
    dof rx
    limits (-10.0 170.0)
  end
  begin
     id 4 
     name lfoot
     direction 0.0709916 -0.195048 0.978221   
     length 2.31941   
     axis -90 7.62852e-016 20   XYZ
    dof rx rz
    limits (-45.0 90.0)
           (-70.0 20.0)
  end
  begin
     id 5 
     name ltoes
     direction 1.53586e-011 -4.22017e-011 1   
     length 1.16486   
     axis -90 7.62852e-016 20   XYZ
    dof rx
    limits (-90.0 20.0)
  end
  begin
     id 6 
     name rhipjoint
     direction -0.638185 -0.721362 0.268992   
     length 2.57244  
     axis 0 0 0  XYZ 
  end
  begin
     id 7 
     name rfemur
     direction -0.34202 -0.939693 0   
     length 7.07017   
     axis 0 0 -20   XYZ
    dof rx ry rz
    limits (-160.0 20.0)
           (-70.0 70.0)
           (-70.0 60.0)
  end
  begin
     id 8 
     name rtibia
     direction -0.34202 -0.939693 0   
     length 8.20386   
     axis 0 0 -20   XYZ
    dof rx
    limits (-10.0 170.0)
 end
 begin
     id 9 
     name rfoot
     direction -0.0822429 -0.225961 0.970658   
     length 2.32215  
     axis -90 -7.62852e-016 -20   XYZ
    dof rx rz
    limits (-45.0 90.0)
           (-20.0 70.0)
  end
  begin
     id 10 
     name rtoes
     direction -1.53597e-011 -4.21689e-011 1   
     length 1.16333   
     axis -90 -7.62852e-016 -20   XYZ
    dof rx
    limits (-90.0 20.0)
  end
  begin
     id 11 
     name lowerback
     direction -0.0131557 0.998589 -0.0514484   
     length 2.14993   
     axis 0 0 0   XYZ
    dof rx ry rz
    limits (-20.0 45.0)
           (-30.0 30.0)
           (-30.0 30.0)
  end
  begin
     id 12 
     name upperback
     direction -0.000776481 0.999993 0.00352685   
     length 2.15301   
     axis 0 0 0   XYZ
    dof rx ry rz
    limits (-20.0 45.0)
           (-30.0 30.0)
           (-30.0 30.0)
  end
  begin
     id 13 
     name thorax
     direction 0.00438186 0.999609 0.0276143   
     length 2.15424   
     axis 0 0 0   XYZ
    dof rx ry rz
    limits (-20.0 45.0)
           (-30.0 30.0)
           (-30.0 30.0)
  end
  begin
     id 14 
     name lowerneck
     direction -0.0488006 0.998094 0.0377807   
     length 1.90481   
     axis 0 0 0   XYZ
    dof rx ry rz
    limits (-20.0 45.0)
           (-30.0 30.0)
           (-30.0 30.0)
  end
  begin
     id 15 
     name upperneck
     direction 0.0443769 0.990702 -0.12861   
     length 1.91305   
     axis 0 0 0   XYZ
    dof rx ry rz
    limits (-20.0 45.0)
           (-30.0 30.0)
           (-30.0 30.0)
  end
  begin
     id 16
     name head
     direction 0.0165599 0.998647 -0.0492982  
     length 1.92369  
     axis 0 0 0   XYZ
    dof rx ry rz
    limits (-20.0 45.0)
           (-30.0 30.0)
           (-30.0 30.0)
  end
  begin
     id 17 
     name lclavicle
     direction 0.911936 0.410197 -0.0105506  
     length 3.52622  
     axis 0 0 0   XYZ
    dof ry rz
    limits (-20.0 10.0)
           (0.0 20.0)
  end
  begin
     id 18 
     name lhumerus
     direction 1 -4.48974e-011 -2.48591e-028   
     length 5.47651   
     axis 180 -30 -90   XYZ
    dof rx ry rz
    limits (-60.0 90.0)
           (-90.0 90.0)
           (-90.0 90.0)
  end
  begin
     id 19
     name lradius
     direction 1 -4.48938e-011 -4.40099e-027   
     length 3.09058   
     axis 180 -30 -90   XYZ
    dof rx
    limits (-10.0 170.0)
  end
  begin
     id 20
     name lwrist
     direction 1 -4.49042e-011 -2.99852e-027   
     length 1.54529   
     axis 1.95339e-015 90 90   XYZ
    dof ry
    limits (-180.0 0.0)
 end
  begin
     id 21 
     name lhand
     direction 1 -4.48815e-011 -5.98193e-027   
     length 0.771611   
     axis 3.82337e-015 90 90   XYZ
    dof rx rz
    limits (-90.0 90.0)
           (-45.0 45.0)
  end
  begin
     id 22 
     name lfingers
     direction 1 -4.49034e-011 -1.1993e-026   
     length 0.622093   
     axis 7.64668e-015 90 90   XYZ
    dof rx
    limits (0.0 90.0)
  end
  begin
     id 23
     name lthumb
     direction 0.707107 -6.34867e-011 0.707107   
     length 0.893204   
     axis -90 45 -1.62303e-014   XYZ
    dof rx rz
    limits (-45.0 45.0)
           (-45.0 45.0)
  end
  begin
     id 24 
     name rclavicle
     direction -0.93442 0.355634 -0.0195692   
     length 3.62463  
     axis 0 0 0   XYZ 
    dof ry rz
    limits (-10.0 20.0)
           (-20.0 0.0)
  end
  begin
     id 25 
     name rhumerus
     direction -1 -4.48957e-011 -1.19147e-027  
     length 5.14182   
     axis 180 30 90   XYZ
    dof rx ry rz
    limits (-90.0 60.0)
           (-90.0 90.0)
           (-90.0 90.0)
  end
  begin
     id 26 
     name rradius
     direction -1 -4.48952e-011 -3.81062e-027   
     length 3.35565   
     axis 180 30 90   XYZ
    dof rx
    limits (-10.0 170.0)
  end
  begin
     id 27 
     name rwrist
     direction -1 -4.48973e-011 -2.99621e-027   
     length 1.67782   
     axis 1.95339e-015 -90 -90   XYZ
    dof ry
    limits (-180.0 0.0)
  end
  begin
     id 28
     name rhand
     direction -1 -4.48895e-011 -5.98727e-027   
     length 0.801042   
     axis 3.82337e-015 -90 -90   XYZ
    dof rx rz
    limits (-90.0 90.0)
           (-45.0 45.0)
  end
  begin
     id 29
     name rfingers
     direction -1 -4.49065e-011 -1.19972e-026   
     length 0.645821   
     axis 7.64668e-015 -90 -90   XYZ
    dof rx
    limits (0.0 90.0)
  end
  begin
     id 30
     name rthumb
     direction -0.707107 -6.34957e-011 0.707107   
     length 0.927273   
     axis -90 -45 1.62303e-014   XYZ
    dof rx rz
    limits (-45.0 45.0)
           (-45.0 45.0)
  end
:hierarchy
  begin
    root lhipjoint rhipjoint lowerback
    lhipjoint lfemur
    lfemur ltibia
    ltibia lfoot
    lfoot ltoes
    rhipjoint rfemur
    rfemur rtibia
    rtibia rfoot
    rfoot rtoes
    lowerback upperback
    upperback thorax
    thorax lowerneck lclavicle rclavicle
    lowerneck upperneck
    upperneck head
    lclavicle lhumerus
    lhumerus lradius
    lradius lwrist
    lwrist lhand lthumb
    lhand lfingers
    rclavicle rhumerus
    rhumerus rradius
    rradius rwrist
    rwrist rhand rthumb
    rhand rfingers
  end

#!OML:ASF E:\Style4\Style4.ASF
:FULLY-SPECIFIED
:DEGREES
468
root 0.38145 18.0143 -1.29136 0.394229 -4.47563 2.9166
lowerback 3.98248 3.95532 -0.133056
upperback 0.178603 5.26128 -0.186739
thorax -2.03599 2.62524 -0.415162
lowerneck 0.328314 -6.11172 -6.71302
upperneck 5.42396 -8.29784 4.51886
head 2.19376 -4.18756 2.44122
rclavicle -7.54015e-014 -3.97569e-016
rhumerus 28.7499 21.1746 -38.7218
rradius 60.5326
rwrist -30.991
rhand -24.3835 28.2941
rfingers 7.12502
rthumb 2.10694 -1.67525
lclavicle -7.54015e-014 -3.97569e-016
lhumerus 18.667 -56.0596 47.8935
lradius 108.332
lwrist 41.736
lhand -16.3683 25.7865
lfingers 7.12502
lthumb 9.84482 55.5364
rfemur -10.3339 5.89648 14.0886
rtibia 25.1909
rfoot -14.122 -12.807
rtoes -15.2719
lfemur -6.32038 -0.431293 -23.2649
ltibia 20.7623
lfoot -15.9941 11.1426
ltoes -12.003
469
root 0.38986 18.015 -1.30858 0.346274 -4.4332 3.00414
lowerback 4.0777 3.87622 -0.0492663
upperback 0.195376 5.1607 -0.123595
thorax -2.07078 2.57432 -0.397734
lowerneck 0.0363831 -6.18873 -6.63605
upperneck 6.06408 -8.38263 4.21757
head 2.44355 -4.23388 2.30832
rclavicle -5.09386e-014 7.95139e-015
rhumerus 29.3464 21.5486 -39.4973
rradius 60.1035
rwrist -31.0794
rhand -24.895 28.9787
rfingers 7.12502
rthumb 1.61297 -0.994932
lclavicle -5.09386e-014 7.95139e-015
lhumerus 20.9506 -54.2285 47.4514
lradius 107.226
lwrist 43.0337
lhand -16.6884 26.0526
lfingers 7.12502
lthumb 9.53605 55.8168
rfemur -10.3382 5.89477 13.9636
rtibia 25.1876
rfoot -14.1172 -12.8105
rtoes -15.0361
lfemur -6.31881 -0.483783 -23.3825
ltibia 20.7166
lfoot -15.9404 11.1479
ltoes -11.8187
470
root 0.398759 18.0164 -1.32662 0.327978 -4.37517 3.06202
lowerback 4.13343 3.77275 0.0307587
upperback 0.232338 5.02872 -0.010148
thorax -2.06781 2.50813 -0.321116
lowerneck -0.341174 -6.24061 -6.73083
upperneck 6.80895 -8.43004 4.00593
head 2.75923 -4.26451 2.23346
rclavicle 1.98785e-016 -9.14409e-015
rhumerus 30.0506 22.064 -40.1495
rradius 59.8964
rwrist -31.9183
rhand -25.8896 29.1598
rfingers 7.12502
rthumb 0.652391 -0.818949
lclavicle 1.98785e-016 -9.14409e-015
lhumerus 23.0693 -52.3814 47.2489
lradius 105.967
lwrist 44.3816
lhand -17.435 26.1484
lfingers 7.12502
lthumb 8.81562 55.9442
rfemur -10.3924 5.81949 13.8624
rtibia 25.2177
rfoot -14.0974 -12.7558
rtoes -14.8514
lfemur -6.35846 -0.51043 -23.4707
ltibia 20.6885
lfoot -15.853 11.1044
ltoes -11.8018
471
root 0.404867 18.0163 -1.34658 0.326385 -4.37498 3.09293
lowerback 4.17943 3.71063 0.110786
upperback 0.260197 4.95213 0.111054
thorax -2.06912 2.4696 -0.239406
lowerneck -0.546924 -6.3135 -6.81368
upperneck 7.40768 -8.50907 3.7775
head 2.99724 -4.31334 2.15608
rclavicle -3.63527e-014 4.77083e-015
rhumerus 30.6705 22.322 -40.9385
rradius 59.3518
rwrist -32.0387
rhand -26.0457 29.8701
rfingers 7.12502
rthumb 0.501614 -0.10904
lclavicle -3.63527e-014 4.77083e-015
lhumerus 25.1088 -50.7205 47.1639
lradius 104.59
lwrist 45.6909
lhand -18.5008 26.0616
lfingers 7.12502
lthumb 7.78701 55.8982
rfemur -10.4996 5.87991 13.8074
rtibia 25.2817
rfoot -13.9987 -12.8231
rtoes -14.9156
lfemur -6.44886 -0.447178 -23.5215
ltibia 20.6924
lfoot -15.6752 11.1382
ltoes -12.4699
472
root 0.412886 18.0143 -1.36639 0.271007 -4.42159 3.1545
lowerback 4.30711 3.66648 0.207023
upperback 0.289029 4.89995 0.206812
thorax -2.11132 2.44276 -0.1997
lowerneck -0.652102 -6.39595 -6.80988
upperneck 7.95479 -8.59844 3.4436
head 3.18997 -4.36959 2.03081
rclavicle 6.83322e-015 8.74653e-015
rhumerus 31.2153 22.5509 -41.759
rradius 58.8751
rwrist -32.199
rhand -26.0015 30.4794
rfingers 7.12502
rthumb 0.544316 0.500341
lclavicle 6.83322e-015 8.74653e-015
lhumerus 27.0335 -49.1603 47.2187
lradius 103.124
lwrist 46.9613
lhand -19.5797 26.1112
lfingers 7.12502
lthumb 6.74553 55.9837
rfemur -10.5763 5.95332 13.711
rtibia 25.3719
rfoot -13.9288 -12.839
rtoes -15.1196
lfemur -6.48835 -0.400108 -23.6105
ltibia 20.7362
lfoot -15.6036 11.1796
ltoes -12.6495
473
root 0.423608 18.012 -1.38734 0.253482 -4.4574 3.15602
lowerback 4.4255 3.58201 0.36608
upperback 0.316762 4.79809 0.330809
thorax -2.14686 2.39067 -0.16201
lowerneck -0.837467 -6.45083 -6.78572
upperneck 8.61108 -8.6399 3.04413
head 3.42925 -4.40479 1.87785
rclavicle 6.33626e-015 2.38542e-015
rhumerus 31.856 22.7667 -42.6774
rradius 58.3376
rwrist -32.2398
rhand -26.0449 30.8295
rfingers 7.12502
rthumb 0.502359 0.850303
lclavicle 6.33626e-015 2.38542e-015
lhumerus 28.7775 -47.5441 47.411
lradius 101.564
lwrist 48.0739
lhand -20.4994 26.2694
lfingers 7.12502
lthumb 5.85763 56.1684
rfemur -10.7123 5.93369 13.6651
rtibia 25.4819
rfoot -13.8772 -12.7741
rtoes -15.4865
lfemur -6.57983 -0.365598 -23.6416
ltibia 20.8017
lfoot -15.6158 11.1585
ltoes -12.3104
474
root 0.431926 18.0102 -1.41023 0.199451 -4.47715 3.18728
lowerback 4.57926 3.48267 0.443712
upperback 0.381346 4.67277 0.459407
thorax -2.17134 2.32771 -0.0737994
lowerneck -1.12464 -6.50356 -6.79822
upperneck 9.33104 -8.67278 2.70695
head 3.71864 -4.43624 1.7476
rclavicle -1.0635e-014 6.36111e-015
rhumerus 32.6295 22.9173 -43.6501
rradius 57.613
rwrist -32.288
rhand -25.9468 31.1519
rfingers 7.12502
rthumb 0.597136 1.17297
lclavicle -1.0635e-014 6.36111e-015
lhumerus 30.4058 -45.9374 47.7014
lradius 99.86
lwrist 49.0063
lhand -21.5239 26.2339
lfingers 7.12502
lthumb 4.86851 56.158
rfemur -10.8176 5.92468 13.6028
rtibia 25.5904
rfoot -13.8181 -12.7561
rtoes -15.5114
lfemur -6.66315 -0.275918 -23.6947
ltibia 20.8845
lfoot -15.6446 11.1659
ltoes -12.5024
475
root 0.44059 18.0091 -1.4329 0.134473 -4.50872 3.24555
lowerback 4.74242 3.40123 0.544636
upperback 0.450994 4.57188 0.54644
thorax -2.19036 2.27658 -0.0423872
lowerneck -1.36886 -6.55815 -6.7533
upperneck 10.0627 -8.70678 2.33718
head 4.00228 -4.46943 1.59634
rclavicle -4.63168e-014 -7.15625e-015
rhumerus 33.3673 23.0641 -44.5705
rradius 56.9112
rwrist -32.4171
rhand -25.7782 31.4831
rfingers 7.12502
rthumb 0.760002 1.50469
lclavicle -4.63168e-014 -7.15625e-015
lhumerus 31.8821 -44.412 48.201
lradius 98.0028
lwrist 49.7259
lhand -22.2693 26.2307
lfingers 7.12502
lthumb 4.14872 56.1701
rfemur -10.9194 5.9588 13.5079
rtibia 25.7198
rfoot -13.7923 -12.7269
rtoes -15.2492
lfemur -6.74076 -0.153496 -23.7734
ltibia 20.988
lfoot -15.6699 11.1079
ltoes -12.7719
476
root 0.450578 18.0065 -1.45584 0.0620591 -4.57529 3.24558
lowerback 4.94586 3.33587 0.750495
upperback 0.51052 4.49918 0.6437
thorax -2.23499 2.23839 -0.063055
lowerneck -1.48358 -6.60208 -6.68437
upperneck 10.7111 -8.72491 1.90132
head 4.22774 -4.49807 1.42368
rclavicle 2.11706e-014 1.03368e-014
rhumerus 34.103 23.284 -45.3334
rradius 56.2276
rwrist -32.4841
rhand -25.6947 31.7659
rfingers 7.12502
rthumb 0.840652 1.78782
lclavicle 2.11706e-014 1.03368e-014
lhumerus 33.1372 -42.9542 48.9835
lradius 95.9627
lwrist 50.1927
lhand -22.604 26.1832
lfingers 7.12502
lthumb 3.82547 56.1286
rfemur -11.025 6.01354 13.477
rtibia 25.8763
rfoot -13.7908 -12.6943
rtoes -15.2162
lfemur -6.80663 0.0243001 -23.7877
ltibia 21.0869
lfoot -15.6473 10.9969
ltoes -12.7472
477
root 0.459639 18.0015 -1.48048 -0.0262623 -4.71079 3.30743
lowerback 5.18915 3.26786 0.812322
upperback 0.579212 4.41741 0.790932
thorax -2.30758 2.197 0.0457692
lowerneck -1.61709 -6.61151 -6.71035
upperneck 11.3252 -8.68015 1.41213
head 4.4468 -4.50294 1.25153
rclavicle -9.44227e-015 7.95139e-016
rhumerus 34.9611 23.5818 -46.0311
rradius 55.46
rwrist -32.4679
rhand -25.8682 32.1144
rfingers 7.12502
rthumb 0.673081 2.13576
lclavicle -9.44227e-015 7.95139e-016
lhumerus 34.257 -41.5579 49.8733
lradius 93.8067
lwrist 50.4621
lhand -23.1728 25.796
lfingers 7.12502
lthumb 3.27618 55.7505
rfemur -11.1651 5.9898 13.3763
rtibia 26.0513
rfoot -13.7207 -12.5483
rtoes -15.444
lfemur -6.8618 0.201156 -23.8707
ltibia 21.1827
lfoot -15.6438 10.9462
ltoes -12.5365
478
root 0.470392 17.997 -1.50419 -0.125832 -4.82565 3.39932
lowerback 5.41249 3.18369 0.850267
upperback 0.676364 4.31239 0.934062
thorax -2.3409 2.1445 0.168235
lowerneck -1.69974 -6.59475 -6.76141
upperneck 11.8911 -8.60459 0.990042
head 4.64519 -4.49254 1.10936
rclavicle -9.0447e-015 -7.95139e-016
rhumerus 35.8277 23.8542 -46.8153
rradius 54.5751
rwrist -32.2226
rhand -26.315 32.4097
rfingers 7.12502
rthumb 0.241464 2.43006
lclavicle -9.0447e-015 -7.95139e-016
lhumerus 35.2759 -40.2099 50.8381
lradius 91.6291
lwrist 50.6784
lhand -23.5547 25.3943
lfingers 7.12502
lthumb 2.9074 55.3542
rfemur -11.306 5.88467 13.2342
rtibia 26.2424
rfoot -13.6333 -12.3823
rtoes -15.7239
lfemur -6.91754 0.31526 -24.0002
ltibia 21.3031
lfoot -15.6285 10.9175
ltoes -12.151
479
root 0.481925 17.993 -1.52766 -0.196152 -4.89818 3.49124
lowerback 5.59563 3.09698 0.928142
upperback 0.777369 4.2052 1.04605
thorax -2.34213 2.09066 0.240082
lowerneck -1.63895 -6.56418 -6.74301
upperneck 12.7 -8.53911 0.688524
head 4.40523 -4.47474 0.911636
rclavicle -2.83765e-014 -1.11319e-014
rhumerus 36.5836 23.9675 -47.8039
rradius 53.5846
rwrist -32.0601
rhand -26.1957 32.7713
rfingers 7.12502
rthumb 0.356733 2.79183
lclavicle -2.83765e-014 -1.11319e-014
lhumerus 36.2529 -38.8495 51.8499
lradius 89.4418
lwrist 50.999
lhand -23.4202 25.3746
lfingers 7.12502
lthumb 3.03732 55.3328
rfemur -11.4723 5.87351 13.0878
rtibia 26.4781
rfoot -13.6815 -12.2519
rtoes -15.7032
lfemur -6.99673 0.340589 -24.1315
ltibia 21.414
lfoot -15.666 10.8587
ltoes -11.4455
